P2
#Itacir.pgm
79 29
255
255 255 255 255 255 255 255 255 255 255 255 255 220 83 3 0 0 140 255 255 255 255 255 255 255 239 230 255 255 255 255 255 255 255 255 255 255 255 255 255 255 255 255 255 255 255 255 255 255 255 255 255 255 255 255 255 255 255 255 255 255 255 255 255 255 255 255 255 255 255 255 255 255 255 255 255 255 255 255
255 255 255 255 255 255 255 255 255 255 255 180 13 0 33 99 0 54 255 255 255 255 255 255 148 2 2 232 255 255 255 255 255 255 255 255 255 255 255 255 255 255 255 255 255 255 255 255 255 255 255 255 255 255 255 255 255 255 255 255 255 255 255 255 255 255 255 255 255 255 255 255 255 255 255 255 255 255 255
255 255 255 255 255 255 255 255 255 255 192 7 0 34 230 154 0 42 255 255 255 255 255 252 27 0 0 223 255 255 255 255 255 255 255 255 255 255 255 255 255 255 255 255 255 255 255 255 255 255 255 255 255 255 255 255 255 255 255 244 148 231 255 255 255 255 255 255 255 255 255 255 255 255 255 255 255 255 255
255 255 255 255 255 255 255 255 255 241 27 0 4 206 255 127 0 48 255 255 255 255 255 190 0 0 1 245 255 255 255 255 255 255 255 255 255 255 255 255 255 255 255 255 255 255 255 255 255 255 255 255 255 255 255 255 255 255 250 57 0 116 255 255 255 255 255 255 255 255 255 255 255 255 255 255 255 255 255
255 255 255 255 255 255 255 255 255 128 0 0 102 255 255 89 0 58 255 255 255 255 255 112 0 0 30 255 255 255 255 255 255 255 255 255 255 255 255 255 255 255 255 255 255 255 255 255 255 255 255 255 255 255 255 255 255 255 182 0 0 115 255 255 255 255 255 255 255 255 255 255 255 255 255 255 255 255 255
255 255 255 255 255 255 255 255 253 25 0 0 201 255 255 43 0 56 171 178 179 171 146 28 0 0 0 7 23 54 101 166 243 255 255 255 255 255 255 255 255 255 255 255 255 255 255 255 255 255 255 255 255 255 255 255 255 255 223 16 40 228 255 255 255 255 255 255 255 255 255 255 255 255 255 255 255 255 255
255 255 255 255 255 255 255 255 202 0 0 26 254 255 243 3 0 0 0 0 0 0 0 0 0 0 0 0 0 0 0 0 43 255 255 255 255 255 255 255 255 255 255 255 255 255 255 255 255 255 255 255 255 255 255 255 255 255 255 242 252 255 255 255 255 255 255 255 255 255 255 255 255 255 255 255 255 255 255
255 255 255 255 255 255 255 255 158 0 0 90 255 255 190 0 0 117 158 107 88 100 71 0 0 0 211 254 246 226 197 153 191 255 255 255 255 255 255 255 255 255 255 255 255 255 255 255 255 255 255 255 255 255 255 255 255 255 255 255 255 255 255 255 255 255 255 255 255 255 255 255 255 255 255 255 255 255 255
255 255 255 255 255 255 255 255 139 0 0 143 255 255 129 0 0 175 255 255 255 255 101 0 0 25 254 255 255 255 255 255 255 255 255 255 255 255 255 255 255 255 255 255 255 255 255 255 255 255 255 255 255 255 255 255 255 255 255 255 255 255 255 255 255 255 235 93 98 245 255 255 255 255 255 255 255 255 255
255 255 255 255 255 255 255 255 144 0 0 178 255 255 67 0 0 223 255 255 255 255 44 0 0 104 255 255 255 255 255 255 255 255 255 233 217 254 255 255 255 255 255 255 255 255 255 255 255 255 255 255 255 255 255 255 255 255 255 255 255 255 255 255 255 250 54 0 0 150 255 255 255 255 255 255 255 255 255
255 255 255 255 255 255 255 255 170 0 0 200 255 248 9 0 21 255 255 255 255 242 3 0 0 190 255 255 255 255 255 255 255 228 86 2 0 52 240 255 255 255 255 255 255 255 235 114 34 5 40 196 255 255 255 255 255 251 204 175 253 255 255 255 255 149 0 0 0 120 255 255 255 255 255 255 255 255 255
255 255 255 255 255 255 255 255 211 0 0 204 255 191 0 0 76 255 255 255 255 192 0 0 27 253 255 255 255 255 255 255 197 21 0 38 0 0 179 255 255 255 255 255 255 204 25 0 11 94 8 29 254 255 255 255 243 37 0 42 255 255 255 255 255 58 0 0 0 178 255 255 255 255 255 255 255 255 255
255 255 255 255 255 255 255 255 253 19 0 171 255 124 0 0 138 255 255 255 255 142 0 0 119 255 255 255 255 255 255 202 12 0 145 239 0 8 166 234 255 255 255 255 218 18 0 45 223 216 15 0 244 255 255 255 146 0 0 123 255 255 255 255 255 85 0 0 0 70 68 75 223 255 255 255 255 255 255
255 255 255 255 255 255 255 255 255 103 0 107 255 57 0 0 204 255 255 255 255 93 0 0 215 255 255 255 255 255 234 26 0 105 255 226 159 0 0 203 255 255 255 253 56 0 32 234 233 6 0 30 255 255 255 255 63 0 0 210 255 255 255 255 255 154 0 3 0 0 0 0 76 255 255 255 255 255 255
255 255 255 255 255 255 255 255 255 221 19 182 240 4 0 20 253 255 255 255 255 45 0 61 255 255 255 255 255 255 87 0 28 243 255 255 205 0 3 245 255 255 255 171 0 0 189 255 226 0 1 161 255 255 255 245 5 0 43 255 255 255 255 255 247 29 0 173 224 211 81 0 11 254 255 255 255 255 255
255 255 255 255 255 255 255 255 255 255 249 255 176 0 0 90 255 255 255 255 249 5 0 164 255 255 255 255 255 199 0 0 157 255 255 255 152 0 46 255 255 255 255 65 0 61 255 255 255 170 197 255 255 255 255 195 0 0 128 255 255 255 255 255 144 0 73 255 255 255 83 0 14 254 255 255 255 221 85
255 255 255 255 255 255 255 233 188 155 128 106 46 0 0 47 89 103 128 245 209 0 21 247 255 255 255 255 255 88 0 14 247 255 255 255 93 0 99 255 255 255 239 3 0 148 255 255 255 255 255 255 255 255 253 76 0 0 204 255 255 255 255 234 20 7 219 255 255 214 4 0 121 255 255 255 251 55 43
255 255 255 255 198 107 35 0 0 0 0 0 0 0 5 36 36 39 85 250 169 0 121 255 255 255 255 255 226 8 0 79 255 255 255 255 29 0 154 255 255 255 189 0 0 203 255 255 255 255 255 255 255 255 110 0 0 26 254 255 255 255 248 64 0 124 255 255 255 73 0 39 245 255 255 255 115 27 230
255 255 199 56 0 0 0 9 67 120 166 156 0 0 91 255 255 255 255 255 132 0 203 255 255 255 255 238 46 0 0 125 255 255 255 190 0 0 207 255 255 252 70 0 0 221 255 255 255 255 255 255 255 124 8 48 0 97 255 255 255 249 78 0 32 245 255 255 187 0 3 201 255 255 255 161 3 188 255
255 146 3 0 0 59 168 246 255 255 255 129 0 0 183 255 255 255 255 255 103 0 213 255 255 255 239 54 1 0 0 140 255 255 220 25 0 7 250 255 255 109 11 0 0 200 255 255 255 255 255 252 111 4 174 81 0 151 255 255 244 74 0 0 177 255 255 255 51 0 106 255 255 255 183 6 131 255 255
172 0 0 6 157 255 255 255 255 255 255 51 0 30 252 255 255 255 255 255 106 0 156 255 255 224 47 12 112 0 0 83 245 173 23 52 19 15 255 255 133 3 179 15 0 89 255 255 255 255 232 71 6 169 255 87 0 151 255 218 47 3 1 77 255 255 255 203 0 0 207 255 255 175 8 90 254 255 255
36 0 0 138 255 255 255 255 255 255 223 1 0 130 255 255 255 255 255 255 169 0 20 139 125 15 12 192 209 0 0 0 0 0 34 225 52 0 130 99 0 148 255 120 0 0 79 177 194 132 19 20 189 255 255 146 0 25 85 8 8 71 10 223 255 255 255 189 0 0 158 218 112 2 77 249 255 255 255
0 0 0 216 255 255 255 255 255 255 135 0 8 233 255 255 255 255 255 255 252 66 0 0 0 30 204 255 255 87 0 0 5 101 238 255 140 0 0 3 139 255 255 247 74 0 0 0 0 1 83 229 255 255 255 251 90 0 0 33 201 31 136 255 255 255 255 245 23 0 0 0 0 104 250 255 255 255 255
2 0 0 203 255 255 255 255 255 253 37 0 109 255 255 255 255 255 255 255 255 249 146 91 128 239 255 255 255 253 190 184 237 255 255 255 254 184 164 223 255 255 255 255 254 175 105 88 120 207 255 255 255 255 255 255 255 210 181 247 255 180 253 255 255 255 255 255 201 47 6 52 180 255 255 255 255 255 255
66 0 0 123 255 255 255 255 255 164 0 15 233 255 255 255 255 255 255 255 255 255 255 255 255 255 255 255 255 255 255 255 255 255 255 255 255 255 255 255 255 255 255 255 255 255 255 255 255 255 255 255 255 255 255 255 255 255 255 255 255 255 255 255 255 255 255 255 255 255 255 255 255 255 255 255 255 255 255
196 2 0 8 204 255 255 255 245 31 0 149 255 255 255 255 255 255 255 255 255 255 255 255 255 255 255 255 255 255 255 255 255 255 255 255 255 255 255 255 255 255 255 255 255 255 255 255 255 255 255 255 255 255 255 255 255 255 255 255 255 255 255 255 255 255 255 255 255 255 255 255 255 255 255 255 255 255 255
255 137 0 0 16 164 253 252 93 0 82 254 255 255 255 255 255 255 255 255 255 255 255 255 255 255 255 255 255 255 255 255 255 255 255 255 255 255 255 255 255 255 255 255 255 255 255 255 255 255 255 255 255 255 255 255 255 255 255 255 255 255 255 255 255 255 255 255 255 255 255 255 255 255 255 255 255 255 255
255 255 156 12 0 0 24 31 0 73 246 255 255 255 255 255 255 255 255 255 255 255 255 255 255 255 255 255 255 255 255 255 255 255 255 255 255 255 255 255 255 255 255 255 255 255 255 255 255 255 255 255 255 255 255 255 255 255 255 255 255 255 255 255 255 255 255 255 255 255 255 255 255 255 255 255 255 255 255
255 255 255 219 71 1 0 1 100 251 255 255 255 255 255 255 255 255 255 255 255 255 255 255 255 255 255 255 255 255 255 255 255 255 255 255 255 255 255 255 255 255 255 255 255 255 255 255 255 255 255 255 255 255 255 255 255 255 255 255 255 255 255 255 255 255 255 255 255 255 255 255 255 255 255 255 255 255 255
